<?xml version="1.0" encoding="utf-8"?>
<!-- Generator: Adobe Illustrator 21.0.2, SVG Export Plug-In . SVG Version: 6.00 Build 0)  -->
<svg version="1.1" id="Layer_1" xmlns="http://www.w3.org/2000/svg" xmlns:xlink="http://www.w3.org/1999/xlink" x="0px" y="0px"
	 viewBox="0 0 300 300" style="enable-background:new 0 0 300 300;" xml:space="preserve">
<style type="text/css">
	.st0{fill:#010101;}
</style>
<g>
	<path class="st0" d="M127.8,192.1h-2.9v10.5h2.9c3.3,0,4.5-2,4.5-5.2S131.1,192.1,127.8,192.1z"/>
	<path class="st0" d="M77.6,192.1H74v5h3.5c1.1,0,2.5-0.3,2.5-2.5C80,192.3,78.6,192.1,77.6,192.1z"/>
	<polygon class="st0" points="219.3,198.7 223.8,198.7 221.6,192.5 	"/>
	<path class="st0" d="M96.4,194.4c0-2.2-1.4-2.4-2.5-2.4H90v4.7h3.9C95,196.8,96.4,196.6,96.4,194.4z"/>
	<path class="st0" d="M110.2,191.8c-3.3,0-4.2,2.6-4.2,5.5c0,2.9,0.8,5.5,4.2,5.5c3.3,0,4.2-2.6,4.2-5.5
		C114.4,194.4,113.5,191.8,110.2,191.8z"/>
	<path class="st0" d="M150,0C67.2,0,0,67.2,0,150c0,82.8,67.2,150,150,150c82.8,0,150-67.2,150-150C300,67.2,232.8,0,150,0z
		 M61.8,171.9l-13.5-33.5L45,163.1c-0.1,0.5-0.1,1.3-0.1,1.5c0,3.1,1.6,3.8,6.2,4v3.3H34.8v-3.3c3.6-0.2,5-0.9,5.4-3.8l4-29.5
		c0-3.4-1.1-4.4-5.4-4.6v-3.3H54c0.1,1.4,0.4,2.2,1.1,3.8l11,27.7l10.4-27.7c0.6-1.5,0.9-2.3,1-3.8h15.1v3.3
		c-4.3,0.2-5.4,1.3-5.4,4.6l4,29.5c0.4,3,1.8,3.6,5.4,3.8v3.3H75.8v-3.3c4.6-0.2,6.2-1,6.2-4c0-0.2-0.1-1.1-0.1-1.5l-3.5-24.6
		l-12.9,33.4H61.8z M77.4,198.7H74v5.5h-1.8v-13.7h5.1c2.2,0,4.5,0.8,4.5,4.1C81.9,197.8,79.6,198.7,77.4,198.7z M96.7,204.2
		l-3.3-5.8H90v5.8h-1.8v-13.7h5.5c2.2,0,4.5,0.7,4.5,4c0,2.6-1.4,3.6-3,3.9l3.6,5.9H96.7z M102.6,168.7c4.3-0.2,5.8-0.9,5.8-4.4
		v-29.1c0-3.6-1.5-4.3-5.8-4.4v-3.3h20.6v3.3c-4.3,0.2-5.8,0.9-5.8,4.4v29.1c0,3.6,1.5,4.3,5.8,4.4v3.3h-20.6V168.7z M110.2,204.4
		c-4.2,0-6-2.8-6-7.1s1.8-7.1,6-7.1c4.2,0,6,2.8,6,7.1S114.4,204.4,110.2,204.4z M127.8,204.2h-4.7v-13.7h4.7c4.2,0,6.3,2.1,6.3,6.9
		S131.9,204.2,127.8,204.2z M151.8,199.2c0,2.9-1.3,5.2-5.5,5.2c-4.2,0-5.5-2.2-5.5-5.2v-8.8h1.8v8.8c0,2,0.6,3.6,3.7,3.6
		c3.1,0,3.7-1.6,3.7-3.6v-8.8h1.8V199.2z M167.4,204.2l-5.1-6.2l-1.7,1.8v4.5h-1.8v-13.7h1.8v6.8l6.3-6.8h2.5l-5.9,6.2l6.3,7.5
		H167.4z M173.7,135.1v36.8h-3.4L140.4,138v26.2c0,3.6,1.9,4.3,6.2,4.4v3.3h-16.8v-3.3c4.3-0.2,5.8-0.9,5.8-4.4v-29.8
		c-2.2-2.6-3.1-3.6-5.8-3.7v-3.3h13.7l25.4,29.3v-21.6c0-3.6-1.8-4.3-6.1-4.4v-3.3h16.8v3.3C175.3,130.9,173.7,131.6,173.7,135.1z
		 M180.8,202.8c2.2,0,3.3-0.7,3.6-2.4l1.8,0.2c-0.3,2.3-1.9,3.9-5.4,3.9c-4.2,0-6-2.8-6-7.1s1.8-7.1,6-7.1c3.4,0,5.1,1.6,5.4,3.9
		l-1.8,0.2c-0.3-1.7-1.4-2.4-3.6-2.4c-3.3,0-4.2,2.6-4.2,5.5C176.6,200.2,177.4,202.8,180.8,202.8z M194.9,204.2h-1.8v-13.7h1.8
		V204.2z M209.8,200.5c0,2.3-1.4,3.9-4.4,3.9c-3.1,0-4-1.5-4.1-3.2l1.8-0.2c0.1,1.1,0.7,1.8,2.4,1.8c1.8,0,2.6-0.8,2.6-2.2v-10.1
		h1.8V200.5z M225.8,204.2l-1.5-4h-5.6l-1.5,4h-1.9l5.3-13.9h1.7l5.3,13.9H225.8z M224.5,140.9c-3.1-6.8-4.4-9.9-10.1-9.9h-3.8v33.2
		c0,3.6,1.8,4.3,6.1,4.4v3.3h-21.3v-3.3c4.3-0.2,6.1-0.9,6.1-4.4V131h-3.8c-5.7,0-7,3-10.1,9.9h-3.6l0.9-13.5h42.3l1,13.5H224.5z
		 M233,171.9v-2.5l11.9-11.9c7-7.2,8.6-10.7,8.6-15.6c0-5.1-3-8-7.8-8c-4.6,0-7.1,2.5-9.6,5l-1.9-1.9c2.9-5.4,7.8-10.1,15.7-10.1
		c8.3,0,13.3,4.7,13.3,12.4c0,9.2-9.1,15.4-19.7,25.3h9.8c4.7,0,6.3-0.6,9.5-6.6h2.6l-2,13.9H233z"/>
</g>
</svg>
